<svg fill="none" height="33" viewBox="0 0 145 33" width="145" xmlns="http://www.w3.org/2000/svg">
  <path d="m2 30.76h8.4v-28h-8.4zm46.0813-28h-10.32l-5.96 18.08-5.92-18.08h-10.6v28h8.08v-17.36l5.4 17.36h6.16l5.08-17.36v17.36h8.08zm19.4953 17.96h4.64c-.4 2.2-2.16 3.96-5.28 3.96-4.6 0-6.84-3.44-6.84-7.8 0-3.96 1.84-7.76 6.32-7.76 2.92 0 4.52 1.76 4.8 3.36h9.2c-.52-5.68-5.8-10.48-13.92-10.48-9.4 0-14.88 7.08-14.88 14.76 0 8.04 5.32 14.76 14.92 14.76 8.24 0 13.08-4.36 14.12-10.8h2.68v-5.48h-15.76zm39.9314 2.92v-20.88h-8.3205v28h15.6405v-7.12zm35.982-20.88h-9.28l-4.24 9.96-4.52-9.96h-9.76l9.4 18.12-4.84 9.88h9.36z" fill="#FFF"/>
  <path d="m85.3788 26.44c0 2.64 2.12 4.8 4.84 4.8 2.8 0 4.92-2.16 4.92-4.8s-2.12-4.8-4.92-4.8c-2.72 0-4.84 2.16-4.84 4.8z" fill="#471aff"/>
</svg>
